<?xml version="1.0" standalone="no"?>
<!DOCTYPE svg PUBLIC "-//W3C//DTD SVG 20010904//EN"
 "http://www.w3.org/TR/2001/REC-SVG-20010904/DTD/svg10.dtd">
<svg version="1.0" xmlns="http://www.w3.org/2000/svg"
 width="300.000000pt" height="300.000000pt" viewBox="0 0 300.000000 300.000000"
 preserveAspectRatio="xMidYMid meet">
<metadata>
Created by potrace 1.11, written by Peter Selinger 2001-2013
</metadata>
<g transform="translate(0.000000,300.000000) scale(0.100000,-0.100000)"
fill="#000000" stroke="none">
<path d="M2141 2209 c-334 -75 -529 -366 -516 -774 10 -315 135 -553 347 -661
92 -47 183 -65 338 -69 173 -5 282 11 408 58 99 36 100 38 94 152 l-4 62 -86
-37 c-493 -212 -870 8 -874 510 -1 161 18 254 78 375 62 126 167 209 299 234
124 25 327 -2 519 -69 33 -11 61 -20 63 -20 1 0 3 45 3 99 0 113 12 101 -115
125 -136 26 -156 28 -315 31 -124 2 -172 -1 -239 -16z"/>
<path d="M581 2032 c-36 -92 -68 -174 -72 -182 -5 -8 -33 -78 -63 -155 -30
-77 -103 -261 -161 -410 -145 -365 -215 -546 -215 -551 0 -3 43 -3 96 -2 l97
3 80 203 79 202 311 -2 310 -3 79 -199 c43 -110 80 -201 82 -203 2 -2 53 -2
113 -1 l111 3 -286 733 -286 732 -105 0 -106 0 -64 -168z m218 -272 c33 -85
86 -222 119 -305 l58 -150 -239 -3 c-132 -1 -242 0 -245 2 -2 3 21 69 53 148
122 308 164 414 175 442 6 16 12 27 15 25 2 -2 31 -74 64 -159z"/>
</g>
</svg>
